<?xml version="1.0" encoding="UTF-8" standalone="no"?>
<!-- Created with Inkscape (http://www.inkscape.org/) -->

<svg
   width="500"
   height="500"
   viewBox="0 0 132.29166 132.29167"
   version="1.1"
   id="svg1063"
   inkscape:version="1.1.1 (3bf5ae0d25, 2021-09-20)"
   sodipodi:docname="logo.svg"
   xmlns:inkscape="http://www.inkscape.org/namespaces/inkscape"
   xmlns:sodipodi="http://sodipodi.sourceforge.net/DTD/sodipodi-0.dtd"
   xmlns="http://www.w3.org/2000/svg"
   xmlns:svg="http://www.w3.org/2000/svg">
  <sodipodi:namedview
     id="namedview1065"
     pagecolor="#505050"
     bordercolor="#ffffff"
     borderopacity="1"
     inkscape:pageshadow="0"
     inkscape:pageopacity="0"
     inkscape:pagecheckerboard="1"
     inkscape:document-units="px"
     showgrid="false"
     units="px"
     inkscape:zoom="0.57460017"
     inkscape:cx="357.63999"
     inkscape:cy="331.53488"
     inkscape:current-layer="layer1" />
  <defs
     id="defs1060" />
  <g
     inkscape:label="Layer 1"
     inkscape:groupmode="layer"
     id="layer1">
    <g
       id="g1148"
       transform="matrix(1.525994,0,0,1.5259936,-85.630243,-39.956859)">
      <path
         id="path2463-9-2-7"
         style="display:inline;fill:#f06971;fill-opacity:1;stroke-width:0.0330161"
         d="m 100.05596,44.741731 a 24.966779,24.795464 0 0 0 -18.48694,7.494426 24.966779,24.795464 0 0 0 0.47757,35.062783 24.966779,24.795464 0 0 0 35.30503,-0.474301 24.966779,24.795464 0 0 0 -0.47756,-35.063357 24.966779,24.795464 0 0 0 -16.8181,-7.019551 z" />
      <path
         id="path1313-3-6-5"
         style="display:inline;fill:#ee3a42;stroke-width:0.166455"
         d="m 100.05596,44.741719 c -0.82276,-0.0056 -1.6634,0.01622 -2.27593,0.07275 -14.52847,1.339298 -24.6377,14.230659 -22.37255,28.529765 0.51703,3.263857 1.98355,6.854647 4.07956,9.988671 0.64416,0.963062 1.09691,1.497015 1.18953,1.402509 0.0302,-0.03086 -0.0815,-0.915404 -0.24846,-1.965844 -1.05484,-6.639271 0.0632,-13.94715 3.0711,-20.069292 3.85529,-7.846799 10.63998,-14.09373 18.86314,-17.368444 0.34982,-0.139304 0.58321,-0.304759 0.5186,-0.367215 -0.13245,-0.128021 -1.45373,-0.213597 -2.82499,-0.222888 z m 10.94192,2.94528 c -0.40436,0.0023 -0.86951,0.109575 -1.58623,0.287484 -6.91881,1.717742 -12.74814,5.18827 -17.58103,10.466463 -2.03759,2.225321 -3.22385,3.818915 -4.58585,6.161738 -2.97565,5.118517 -4.58698,11.194723 -4.52666,17.066984 0.0202,1.965551 0.27507,4.814703 0.49984,5.58561 0.0589,0.201626 0.31632,0.572344 0.5725,0.823465 0.68398,0.671501 2.22013,1.67863 2.35327,1.54276 0.0633,-0.06453 0.14986,-0.621861 0.1922,-1.237821 0.34134,-4.965799 2.92447,-11.742652 6.24181,-16.374457 4.10112,-5.726109 9.87084,-10.493288 16.41905,-13.565959 3.19347,-1.498502 6.82012,-2.779252 9.49749,-3.353803 0.86298,-0.185184 1.0988,-0.297326 1.09577,-0.520856 -0.002,-0.185928 -0.66142,-0.92189 -1.56397,-1.8186 -0.18804,-0.186817 -0.38641,-0.380639 -0.59183,-0.577884 -1.43797,-1.380685 -3.21083,-2.93019 -4.03679,-3.441103 -1.22023,-0.754791 -1.72563,-1.04696 -2.39957,-1.044021 z m 11.80331,15.259432 c -1.55773,0.01565 -4.67244,0.363735 -6.82193,0.813577 -5.35407,1.120599 -9.99214,3.106826 -14.43785,6.18327 -3.56578,2.467533 -7.51032,6.662627 -9.57778,10.186535 -1.5589,2.657076 -3.10497,6.649734 -3.70161,9.558031 -0.13978,0.681378 -0.14435,1.191806 -0.0117,1.320458 0.39757,0.384299 4.17078,1.958524 4.32274,1.803475 0.0246,-0.02511 0.68771,-0.979267 1.47373,-2.120059 1.74139,-2.527365 4.92209,-6.046825 6.91979,-7.657357 7.0023,-5.645206 14.0829,-7.50741 20.67732,-5.437792 0.71079,0.22308 1.35245,0.344197 1.42627,0.268858 0.16596,-0.169328 0.83161,-2.532039 1.11862,-3.97009 0.32092,-1.607885 0.50254,-4.564033 0.37738,-6.144868 -0.13486,-1.703259 -0.62504,-4.511644 -0.82037,-4.700444 -0.0804,-0.07703 -0.426,-0.108786 -0.9446,-0.103605 z m -9.52914,21.177921 c -0.12655,-8.9e-4 -0.2511,5.97e-4 -0.37327,0.0045 -5.25731,0.173338 -10.5544,2.75352 -16.62295,8.097322 -1.36889,1.205399 -1.35423,1.308724 0.21447,1.504944 6.2658,0.783689 12.20512,-0.622581 17.36598,-4.112097 1.78284,-1.205466 4.60258,-3.75103 4.51962,-4.080092 -0.0219,-0.08671 -0.0889,-0.175173 -0.19396,-0.263035 -0.68912,-0.576567 -3.01158,-1.136974 -4.90989,-1.151693 z" />
      <path
         id="path1313-2-2"
         style="display:inline;fill:#0e232e;fill-opacity:0.997275;stroke-width:0.167323"
         d="m 129.2171,38.336128 c -2.43564,-2.386093 -4.07432,-3.657646 -6.96526,-5.487396 -6.50702,-4.118456 -14.3655,-6.443896 -22.21496,-6.573806 -2.53288,-0.04188 -3.54593,0.230627 -4.50874,1.21305 -1.43193,1.461142 -1.53416,3.439448 -0.26347,5.099202 0.79833,1.042772 1.79004,1.398803 4.05069,1.454102 7.96745,0.194934 14.62699,2.360271 20.86383,6.783897 2.17249,1.540887 5.50757,4.752007 7.23291,6.96395 4.18703,5.367934 6.71402,11.824835 7.32918,18.727414 0.4746,5.325437 -0.2076,10.360681 -2.07726,15.331412 -1.83277,4.872664 -3.6932,7.847384 -7.3652,11.776736 -2.14514,2.29552 -2.71318,2.823856 -4.40314,4.096144 -5.32009,4.005087 -11.26186,6.336237 -18.05016,7.081587 -7.32494,0.8043 -15.2589,-0.8922 -21.62887,-4.62494 -5.06916,-2.970482 -9.55281,-7.331847 -12.52477,-12.18307 -2.02087,-3.298693 -3.47062,-6.833356 -4.28945,-10.458115 -0.58624,-2.595166 -0.87506,-3.366772 -1.48054,-3.959044 -1.05915,-1.034848 -2.74569,-1.42664 -4.13268,-0.959138 -1.27215,0.428774 -2.43355,1.926629 -2.58297,3.331171 -0.0847,0.796092 0.8925,4.980533 1.74153,7.457222 1.73978,5.074978 3.76468,8.70576 7.60523,13.636813 1.07622,1.381811 6.64988,6.561671 8.27679,7.691911 6.76513,4.70006 14.15069,7.32611 22.28097,7.92235 4.36785,0.3203 7.99116,0.0667 12.25686,-0.85784 8.2607,-1.79042 15.02154,-5.37318 21.06819,-11.16453 6.91054,-6.618752 11.21408,-14.829695 12.78973,-24.401982 0.78029,-4.740331 0.62832,-10.6763 -0.39605,-15.469643 -0.5333,-2.495424 -1.84203,-6.709694 -2.55417,-8.224799 -2.86061,-6.085918 -4.73961,-8.834732 -8.95961,-13.107022 -0.38645,-0.391238 -0.75064,-0.754798 -1.09856,-1.095682 z m -26.97361,6.695966 c -0.0179,-0.01732 -0.1636,-0.02864 -0.22195,-0.04426 0.0381,0.02411 0.0755,0.04867 0.10319,0.07506 0.0272,0.02604 0.0399,0.05604 0.0586,0.08434 0.055,-0.048 0.0856,-0.09057 0.0602,-0.115161 z M 85.32591,30.948038 c -0.81999,-0.812666 -2.20131,-1.25172 -3.27695,-1.041617 -1.58045,0.30869 -5.42565,2.414122 -8.71006,4.769072 -2.0265,1.453061 -2.44568,1.827024 -5.25046,4.682678 -3.18394,3.242368 -4.07705,4.353434 -5.99804,7.465502 -2.10178,3.404956 -4.06942,7.895347 -4.94204,11.278444 -0.41922,1.625353 -0.4513,2.637945 -0.11158,3.522085 0.16344,0.425379 0.54005,0.955481 0.9886,1.392576 1.50358,1.464448 3.87371,1.415873 5.36856,-0.109462 0.58144,-0.593302 0.75783,-0.99081 1.63565,-3.68599 1.98319,-6.089007 4.3559,-10.07427 8.54038,-14.346793 3.06224,-3.126276 5.68035,-5.061886 9.45118,-6.986975 2.16614,-1.105858 2.85977,-1.739472 3.31235,-3.026068 0.50484,-1.435163 0.16632,-2.750004 -1.00753,-3.913448 z m -7.02663,25.131511 c -0.002,0.0034 -0.003,0.0056 -0.005,0.0079 -0.002,0.03498 -0.005,0.07358 -0.006,0.107424 0.003,-0.02716 0.009,-0.08807 0.0116,-0.115512 z m 2.89315,6.92952 c -0.035,0.0079 -0.0678,0.01743 -0.10353,0.02513 0.0222,0.02467 0.0457,0.04483 0.0668,0.07245 0.012,-0.03181 0.0243,-0.06384 0.0368,-0.09758 z" />
    </g>
  </g>
</svg>
