<?xml version="1.0" encoding="UTF-8" standalone="no"?>
<!-- Created with Inkscape (http://www.inkscape.org/) -->

<svg
   width="210mm"
   height="297mm"
   viewBox="0 0 210 297"
   version="1.1"
   id="svg5"
   inkscape:version="1.1.1 (3bf5ae0d25, 2021-09-20)"
   sodipodi:docname="sushiLogo.svg"
   xmlns:inkscape="http://www.inkscape.org/namespaces/inkscape"
   xmlns:sodipodi="http://sodipodi.sourceforge.net/DTD/sodipodi-0.dtd"
   xmlns="http://www.w3.org/2000/svg"
   xmlns:svg="http://www.w3.org/2000/svg">
  <sodipodi:namedview
     id="namedview7"
     pagecolor="#505050"
     bordercolor="#ffffff"
     borderopacity="1"
     inkscape:pageshadow="0"
     inkscape:pageopacity="0"
     inkscape:pagecheckerboard="1"
     inkscape:document-units="mm"
     showgrid="false"
     inkscape:zoom="0.19496277"
     inkscape:cx="597.54998"
     inkscape:cy="418.02853"
     inkscape:current-layer="layer1" />
  <defs
     id="defs2">
    <clipPath
       clipPathUnits="userSpaceOnUse"
       id="clipPath11589">
      <rect
         style="fill:#000000;fill-opacity:1;stroke-width:0.0605877"
         id="rect11591"
         width="137.12994"
         height="137.12994"
         x="282.44275"
         y="151.44328" />
    </clipPath>
  </defs>
  <g
     inkscape:label="Layer 1"
     inkscape:groupmode="layer"
     id="layer1">
    <rect
       style="opacity:0;fill:#000000;fill-opacity:1;stroke-width:0.224448"
       id="rect11401-3"
       width="508"
       height="508"
       x="-149"
       y="-105.5"
       inkscape:export-filename="/home/yhauzeur/Documents/sushi/deploy/img/logoPngSushi.png"
       inkscape:export-xdpi="122.524"
       inkscape:export-ydpi="122.524" />
    <g
       id="g11353"
       transform="matrix(3.7045155,0,0,3.7045155,-1195.3135,-666.524)"
       clip-path="url(#clipPath11589)"
       inkscape:export-filename="/home/yhauzeur/Documents/sushi/deploy/img/logoPngSushi.png"
       inkscape:export-xdpi="122.524"
       inkscape:export-ydpi="122.524">
      <circle
         style="fill:#f06971;fill-opacity:1;stroke-width:0.0524797"
         id="path2463"
         cx="351.06277"
         cy="219.91278"
         r="39.548779" />
      <g
         id="g1311"
         transform="translate(151.73863,87.161371)">
        <path
           style="display:inline;fill:#ee3a42;stroke-width:0.264583"
           d="m 191.68144,201.11539 c -9.79423,-1.38577 -16.09905,-3.28867 -23.68021,-7.14709 -3.69975,-1.88298 -9.43427,-5.5669 -10.21965,-6.56523 -1.38565,-1.76132 -1.73173,-4.74101 -0.76968,-6.62677 1.04892,-2.05606 3.38703,-3.46491 5.72836,-3.45167 1.33922,0.008 2.51937,0.56798 6.05347,2.87453 4.93618,3.22164 10.48515,5.64735 16.41791,7.17705 8.72501,2.24965 18.615,2.28073 27.62688,0.0868 11.32444,-2.75691 22.16152,-9.54806 29.54324,-18.51353 6.84091,-8.30862 10.97089,-17.48989 12.54626,-27.89131 0.50044,-3.30416 0.55709,-4.52924 0.4391,-9.49715 -0.20196,-8.50387 -1.39322,-13.93112 -4.71611,-21.4861 -3.38978,-7.70706 -8.19189,-14.182404 -14.6215,-19.716167 -8.33377,-7.172614 -18.33322,-11.737138 -29.00223,-13.238858 -4.39632,-0.618806 -11.71639,-0.604348 -15.875,0.03135 -11.93869,1.824992 -21.85545,6.682361 -31.06858,15.217824 -2.61406,2.421789 -4.12795,3.106989 -6.18353,2.798736 -3.27179,-0.490636 -5.34581,-2.852537 -5.34581,-6.087827 0,-2.175302 0.84233,-3.598617 3.74903,-6.334862 9.00791,-8.479674 20.45591,-14.472771 32.36199,-16.941712 6.04529,-1.253597 9.4366,-1.538637 16.39174,-1.377723 9.49365,0.219645 14.65756,1.279964 24.62328,5.055972 2.48094,0.940027 8.62286,4.293572 11.98677,6.544883 6.46161,4.324471 13.20264,10.907081 17.56763,17.154782 8.81437,12.616192 13.04155,26.682732 12.56269,41.804172 -0.419,13.23111 -4.08881,24.73578 -11.4359,35.85104 -3.79392,5.73974 -7.60497,10.01049 -12.89194,14.44702 -9.8411,8.25809 -21.08761,13.38962 -33.92883,15.48095 -3.08806,0.50293 -15.11478,0.73922 -17.85938,0.35089 z m 8.59896,-29.40525 c -1.11275,-0.6328 -4.5721,-3.60778 -6.78163,-5.83208 -6.60119,-6.64535 -11.53087,-15.37049 -13.84724,-24.50854 -1.06024,-4.18261 -1.48692,-7.31499 -1.64956,-12.10972 -0.38575,-11.37249 2.37097,-21.77983 8.31394,-31.387351 1.6417,-2.654002 1.80577,-2.762214 5.36553,-3.538914 2.75373,-0.600829 12.96506,-0.728668 13.52425,-0.169315 0.25208,0.252162 0.1088,0.641554 -0.6648,1.806676 -2.40006,3.614756 -5.09187,9.084574 -7.04991,14.325604 -4.01497,10.74673 -5.26125,22.57041 -3.54652,33.64639 1.38703,8.95924 5.99374,19.5599 11.13058,25.61292 0.63717,0.75082 1.15849,1.48274 1.15849,1.62649 0,0.3024 -2.86386,0.84864 -4.3873,0.83681 -0.57016,-0.004 -1.27479,-0.14346 -1.56583,-0.30897 z m -8.59896,-0.36093 c -5.86578,-1.26642 -11.52487,-3.75021 -15.74271,-6.90954 -18.47861,-13.84121 -21.34442,-39.74481 -6.34231,-57.32719 1.68666,-1.97675 5.48903,-5.46449 5.95744,-5.46449 0.14283,0 0.0616,0.44648 -0.18052,0.99219 -5.69155,12.82824 -6.44343,27.46428 -2.09045,40.69258 3.39624,10.32084 10.25647,19.90952 18.83985,26.33278 1.35802,1.01626 2.46912,1.90383 2.46912,1.97239 0,0.21035 -1.10782,0.10045 -2.91042,-0.28872 z m -48.81562,-1.14764 c -1.36207,-0.63197 -2.44645,-1.81863 -3.77179,-4.12754 -2.75866,-4.80593 -5.50627,-12.07451 -6.90106,-18.25625 -1.27483,-5.65003 -1.49642,-7.89497 -1.48867,-15.08125 0.007,-6.32984 0.0665,-7.21584 0.74687,-11.09541 1.10273,-6.28768 3.11501,-12.90805 4.55812,-14.99612 0.98218,-1.42115 3.02787,-2.44002 4.85325,-2.4172 2.61319,0.0327 4.45055,1.15561 5.46875,3.34235 0.9128,1.96039 0.83083,3.44329 -0.39147,7.08157 -2.12778,6.3335 -2.94236,11.41203 -2.94049,18.33257 0.003,9.45736 1.7341,16.59667 6.23324,25.70005 1.99146,4.02944 2.2322,4.67537 2.2322,5.98906 0,3.37744 -2.62274,6.03709 -5.94142,6.02503 -0.99024,-0.004 -2.00221,-0.1928 -2.65753,-0.49686 z m 65.84652,-1.28327 c -2.55812,-3.98334 -5.24458,-10.25575 -6.43091,-15.0151 -1.57337,-6.31203 -1.76291,-15.46502 -0.46026,-22.225 1.62411,-8.42814 4.6791,-15.82254 9.51016,-23.01875 2.58602,-3.85206 7.32133,-9.392711 8.02747,-9.392711 0.43177,0 4.11231,2.668471 6.16022,4.466291 1.90072,1.6686 4.98304,5.2476 6.40748,7.43996 1.27398,1.96079 3.14661,5.39701 3.14661,5.77393 0,0.16766 -0.8632,0.73874 -1.91823,1.26907 -9.78806,4.92019 -15.75409,14.8712 -17.42265,29.06003 -0.47603,4.04795 -0.1708,11.58501 0.66406,16.39774 0.37684,2.17234 0.68515,3.99551 0.68515,4.05148 0,0.3451 -6.03363,2.71442 -6.91245,2.71442 -0.29422,0 -0.8573,-0.58811 -1.45665,-1.52136 z m 11.92074,-5.95312 c 0.94392,-12.81269 4.08621,-21.61397 9.86125,-27.62055 2.45399,-2.55237 6.81614,-5.03967 7.78658,-4.43991 0.46024,0.28445 0.0911,6.31004 -0.59165,9.65764 -1.97638,9.6904 -7.1535,17.8594 -15.13798,23.88628 -1.99898,1.50888 -2.13112,1.40669 -1.9182,-1.48346 z"
           id="path1313"
           sodipodi:insensitive="true" />
      </g>
    </g>
  </g>
</svg>
